<?xml version="1.0" standalone="no"?>
<!DOCTYPE svg PUBLIC "-//W3C//DTD SVG 20010904//EN"
 "http://www.w3.org/TR/2001/REC-SVG-20010904/DTD/svg10.dtd">
<svg version="1.0" xmlns="http://www.w3.org/2000/svg"
 width="280.000000pt" height="280.000000pt" viewBox="0 0 280.000000 280.000000"
 preserveAspectRatio="xMidYMid meet">
<metadata>
Created by potrace 1.11, written by Peter Selinger 2001-2013
</metadata>
<g transform="translate(0.000000,280.000000) scale(0.100000,-0.100000)"
fill="#000000" stroke="none">
<path d="M0 1400 l0 -1400 1400 0 1400 0 0 1400 0 1400 -1400 0 -1400 0 0
-1400z m1103 492 c34 -17 79 -48 100 -70 l37 -38 -61 -90 c-34 -49 -63 -91
-65 -93 -3 -3 -17 7 -32 21 -63 59 -118 71 -182 38 -83 -42 -124 -148 -118
-303 3 -89 7 -110 33 -162 37 -74 79 -105 144 -105 46 0 93 21 138 62 12 11
26 17 32 14 5 -3 35 -42 66 -86 l56 -81 -20 -28 c-24 -34 -70 -70 -131 -102
-39 -21 -58 -24 -150 -24 -95 0 -111 3 -167 29 -76 35 -163 122 -198 198 -44
96 -59 174 -59 303 1 185 47 321 143 422 125 131 289 166 434 95z m607 -177
l0 -195 125 0 125 0 0 195 0 195 120 0 120 0 0 -525 0 -525 -120 0 -120 0 0
205 0 205 -125 0 -125 0 0 -205 0 -205 -125 0 -125 0 0 525 0 525 125 0 125 0
0 -195z"/>
</g>
</svg>
